<svg height="512pt" viewBox="-16 0 512 512" width="512pt" xmlns="http://www.w3.org/2000/svg"><path d="m330 0h-180c-82.710938 0-150 67.289062-150 150v212c0 82.710938 67.289062 150 150 150h30c82.710938 0 150-67.289062 150-150v-61c39.980469 0 77.652344-15.816406 106.078125-44.53125 28.324219-28.613281 43.921875-66.425781 43.921875-106.46875 0-82.710938-67.289062-150-150-150zm-210 210v31h-90v-31zm29.984375-60.011719h.015625 180c-82.742188 0-150 68.148438-150 151.011719v61h-30c0-223.742188-.011719-138.949219-.015625-212.011719zm180.015625 121.011719c-16.542969 0-30 13.457031-30 30v61c0 66.167969-53.832031 120-120 120h-30c-66.167969 0-120-53.832031-120-120v-91h30c0 8.285156 6.714844 15 15 15s15-6.714844 15-15h30v91c0 16.542969 13.457031 30 30 30h30c16.542969 0 30-13.457031 30-30v-61c0-66.71875 53.832031-121 120-121 16.542969 0 30-13.457031 30-30s-13.457031-30-30-30h-180c-16.542969 0-30 13.457031-30 30v30h-30c0-8.285156-6.714844-15-15-15s-15 6.714844-15 15h-30v-30c0-66.167969 53.832031-120 120-120h180c66.167969 0 120 53.832031 120 120 0 66.71875-53.832031 121-120 121zm0 0"/><path d="m84.632812 88.191406c-8.03125 8.488282-14.25 18.285156-18.488281 29.113282-3.015625 7.714843.792969 16.417968 8.507813 19.433593 7.679687 3.003907 16.402344-.753906 19.433594-8.507812 2.824218-7.21875 6.976562-13.753907 12.339843-19.421875 5.691407-6.019532 5.429688-15.511719-.589843-21.207032-6.019532-5.691406-15.515626-5.425781-21.203126.589844zm0 0"/><path d="m311.859375 211.882812c-11.375 2.386719-22.066406 6.957032-31.785156 13.574219-6.847657 4.660157-8.617188 13.992188-3.957031 20.839844 4.640624 6.8125 13.964843 8.640625 20.84375 3.957031 6.460937-4.402344 13.550781-7.433594 21.070312-9.015625 8.105469-1.703125 13.296875-9.65625 11.59375-17.761719-1.703125-8.109374-9.648438-13.300781-17.765625-11.59375zm0 0"/><path d="m260.042969 269.960938c-8.09375-1.796876-16.097657 3.308593-17.890625 11.394531-1.429688 6.433593-2.152344 13.042969-2.152344 19.644531v12.398438c0 8.285156 6.714844 15 15 15s15-6.714844 15-15v-12.398438c0-4.421875.484375-8.84375 1.4375-13.144531 1.796875-8.089844-3.304688-16.101563-11.394531-17.894531zm0 0"/><path d="m175.785156 60h-25.789062c-1.253906 0-2.519532.027344-3.765625.078125-8.277344.34375-14.707031 7.332031-14.363281 15.609375.332031 8.066406 6.976562 14.378906 14.976562 14.378906.636719 0 1.542969-.066406 3.15625-.066406h25.785156c8.28125 0 15-6.714844 15-15s-6.71875-15-15-15zm0 0"/><path d="m256.269531 356.347656c-8.234375-1.015625-15.707031 4.832032-16.722656 13.050782-.949219 7.695312-3.355469 15.035156-7.15625 21.816406-4.050781 7.226562-1.472656 16.367187 5.753906 20.417968 7.195313 4.03125 16.351563 1.503907 20.417969-5.753906 5.710938-10.191406 9.332031-21.230468 10.757812-32.808594 1.015626-8.222656-4.828124-15.707031-13.050781-16.722656zm0 0"/><path d="m262.578125 60h-28.933594c-8.28125 0-15 6.714844-15 15s6.71875 15 15 15h28.933594c8.28125 0 15-6.714844 15-15s-6.71875-15-15-15zm0 0"/><path d="m418.921875 136.070312c-1.800781-11.519531-5.773437-22.433593-11.808594-32.4375-4.277343-7.09375-13.496093-9.378906-20.59375-5.097656-7.09375 4.277344-9.375 13.496094-5.09375 20.59375 4.015625 6.65625 6.660157 13.914063 7.855469 21.574219 1.277344 8.195313 8.957031 13.78125 17.132812 12.503906 8.1875-1.277343 13.785157-8.949219 12.507813-17.136719zm0 0"/><path d="m399.882812 181.074219c-6.753906-4.792969-16.121093-3.203125-20.914062 3.550781-4.511719 6.355469-10.117188 11.707031-16.667969 15.914062-6.972656 4.476563-8.992187 13.753907-4.519531 20.726563 4.488281 6.992187 13.773438 8.980469 20.726562 4.519531 9.796876-6.289062 18.183594-14.296875 24.925782-23.792968 4.792968-6.757813 3.203125-16.121094-3.550782-20.917969zm0 0"/><path d="m363.648438 81.308594c2.117187-8.007813-2.660157-16.214844-10.667969-18.332032-7.46875-1.976562-15.203125-2.976562-22.980469-2.976562h-9.5625c-8.285156 0-15 6.714844-15 15s6.714844 15 15 15h9.5625c5.191406 0 10.347656.664062 15.316406 1.980469 8.058594 2.128906 16.230469-2.710938 18.332032-10.671875zm0 0"/><path d="m123.019531 415.582031c-6.925781-3.503906-13.042969-8.261719-18.183593-14.132812-5.453126-6.234375-14.933594-6.867188-21.164063-1.414063-6.234375 5.453125-6.867187 14.929688-1.414063 21.164063 7.683594 8.785156 16.839844 15.898437 27.214844 21.152343 7.425782 3.753907 16.433594.75 20.160156-6.613281 3.738282-7.390625.777344-16.414062-6.613281-20.15625zm0 0"/><path d="m197.160156 419.5c-5.542968 1.660156-11.316406 2.5-17.160156 2.5h-7.160156c-8.285156 0-15 6.714844-15 15s6.714844 15 15 15h7.160156c8.757812 0 17.425781-1.265625 25.757812-3.757812 7.9375-2.375 12.445313-10.730469 10.070313-18.667969-2.371094-7.9375-10.726563-12.445313-18.667969-10.074219zm0 0"/><path d="m90 358.003906v-28.929687c0-8.285157-6.714844-15-15-15s-15 6.714843-15 15v28.929687c0 8.285156 6.714844 15 15 15s15-6.714844 15-15zm0 0"/></svg>