<?xml version='1.0' encoding='iso-8859-1'?>
<svg version="1.1" xmlns="http://www.w3.org/2000/svg" viewBox="0 0 478.344 478.344" xmlns:xlink="http://www.w3.org/1999/xlink" enable-background="new 0 0 478.344 478.344">
  <g>
    <g fill="#010202">
      <path d="m56.028,228.461c-18.226,0-33.052,14.826-33.052,33.052s14.826,33.052 33.052,33.052c18.22,0 33.046-14.826 33.046-33.052s-14.826-33.052-33.046-33.052zm0,43.047c-5.513,0-10.001-4.482-10.001-9.995s4.488-9.995 10.001-9.995c5.507,0 9.995,4.482 9.995,9.995s-4.488,9.995-9.995,9.995z"/>
      <path d="m377.528,228.461c-18.226,0-33.052,14.826-33.052,33.052s14.826,33.052 33.052,33.052c18.22,0 33.046-14.826 33.046-33.052s-14.832-33.052-33.046-33.052zm0,43.047c-5.513,0-10.001-4.482-10.001-9.995s4.488-9.995 10.001-9.995c5.507,0 9.995,4.482 9.995,9.995s-4.488,9.995-9.995,9.995z"/>
      <polygon points="290.782,256.996 274.622,271.38 102.032,271.38 102.032,288.663 281.2,288.663     298.518,273.254 331.268,267.946 328.503,250.884   "/>
      <polygon points="59.311,205.584 54.026,210.864 66.256,223.088 76.594,212.75 76.594,183.778 0,183.778     0,255.564 17.295,255.564 17.295,201.073 59.311,201.073   "/>
      <polygon points="225.882,191.916 156.78,191.916 92.812,215.899 98.883,232.088 159.912,209.205     208.588,209.205 208.588,238.852 340.087,238.852 340.087,221.569 225.882,221.569   "/>
      <polygon points="447.236,260.343 457.929,249.691 457.929,232.32 414.411,222.727 410.685,239.608     437.596,245.54 429.487,253.608 429.487,277.632 461.049,277.632 461.049,283.034 478.344,283.034 478.344,260.343   "/>
    </g>
  </g>
</svg>
