<svg height="512pt" viewBox="0 -136 512 512" width="512pt" xmlns="http://www.w3.org/2000/svg"><path d="m505.320312 122.519531c-30.375-20.25-63.730468-35.914062-99.144531-46.554687-35.246093-10.59375-71.699219-15.964844-108.339843-15.964844h-26.835938v-45c0-8.285156-6.714844-15-15-15-62.117188 0-121.734375 24.167969-166 66.050781v-21.050781c0-24.8125-20.1875-45-45-45h-30c-8.285156 0-15 6.714844-15 15v150c0 8.285156 6.714844 15 15 15h15c0 33.085938 26.914062 60 60 60 22.160156 0 41.535156-12.085938 51.929688-30h198.140624c10.394532 17.914062 29.769532 30 51.929688 30s41.535156-12.085938 51.929688-30h53.070312c8.285156 0 15-6.714844 15-15v-60c0-8.464844-6.769531-12.582031-6.679688-12.480469zm-264.320312-91.984375v44.464844c0 8.285156 6.714844 15 15 15h41.835938c48.285156 0 96.730468 10.464844 140.757812 30h-348.59375v-9.53125c36.453125-46.5625 91.765625-75.699219 151-79.933594zm-211 119.464844v-120h15c8.269531 0 15 6.730469 15 15v83.070312c-9.082031 5.269532-16.660156 12.847657-21.929688 21.929688zm60 60c-16.542969 0-30-13.457031-30-30s13.457031-30 30-30 30 13.457031 30 30-13.457031 30-30 30zm60-30c0-10.925781-2.949219-21.175781-8.070312-30.011719h198.140624c-5.121093 8.835938-8.070312 19.085938-8.070312 30.011719zm242 30c-16.542969 0-30-13.457031-30-30s13.457031-30 30-30 30 13.457031 30 30-13.457031 30-30 30zm60-30c0-10.925781-2.949219-21.167969-8.070312-30h38.070312v30zm0 0"/></svg>