<svg height="512pt" viewBox="0 0 512 512" width="512pt" xmlns="http://www.w3.org/2000/svg"><path d="m512 256c0 141.386719-114.613281 256-256 256s-256-114.613281-256-256 114.613281-256 256-256 256 114.613281 256 256zm0 0" fill="#ffd400"/><path d="m512 256c0-26.160156-3.933594-51.398438-11.222656-75.167969l-98.386719-98.386719-276.117187 87.832032-16.664063 187.722656 153.882813 153.882812c137.917968-3.964843 248.507812-117.003906 248.507812-255.882812zm0 0" fill="#fdba12"/><path d="m109.609375 82.445312h23.390625v275.554688h-23.390625zm0 0" fill="#7e8596"/><path d="m379 82.445312h23.390625v275.554688h-23.390625zm0 0" fill="#707789"/><path d="m116.566406 470.714844c40.117188 26.105468 88 41.285156 139.433594 41.285156s99.316406-15.179688 139.433594-41.285156l-77.859375-238.378906h-123.148438zm0 0" fill="#414952"/><path d="m395.433594 470.714844-77.859375-238.378906h-61.929688v279.660156c.117188 0 .238281.003906.355469.003906 51.433594 0 99.316406-15.179688 139.433594-41.285156zm0 0" fill="#333940"/><path d="m271.890625 273h-31.78125l-4.785156 69h41.351562zm0 0" fill="#fff"/><path d="m271.890625 273h-16.246094v69h21.03125zm0 0" fill="#dce1eb"/><path d="m279.378906 381h-46.757812l-6.167969 89h59.09375zm0 0" fill="#fff"/><path d="m279.378906 381h-23.734375v89h29.902344zm0 0" fill="#dce1eb"/><path d="m109.609375 82.445312h58.558594v58.554688h-58.558594zm0 0" fill="#fff"/><path d="m109.609375 141h58.558594v58.554688h-58.558594zm0 0" fill="#414952"/><path d="m226.722656 199.554688h-58.558594v-58.554688h58.558594zm0 0" fill="#fff"/><path d="m226.722656 141h-58.558594v-58.554688h58.558594zm0 0" fill="#414952"/><path d="m226.722656 82.445312h58.554688v58.554688h-58.554688zm0 0" fill="#fff"/><path d="m255.644531 82.445312h29.632813v58.554688h-29.632813zm0 0" fill="#dce1eb"/><path d="m226.722656 141h58.554688v58.554688h-58.554688zm0 0" fill="#414952"/><path d="m255.644531 141h29.632813v58.554688h-29.632813zm0 0" fill="#333940"/><path d="m343.832031 82.445312h58.558594v58.554688h-58.558594zm0 0" fill="#dce1eb"/><path d="m343.832031 141h58.558594v58.554688h-58.558594zm0 0" fill="#333940"/><path d="m343.832031 199.554688h-58.554687v-58.554688h58.554687zm0 0" fill="#dce1eb"/><path d="m343.832031 141h-58.554687v-58.554688h58.554687zm0 0" fill="#333940"/></svg>