<svg height="512pt" viewBox="0 0 512 512" width="512pt" xmlns="http://www.w3.org/2000/svg"><path d="m512 256c0 141.386719-114.613281 256-256 256s-256-114.613281-256-256 114.613281-256 256-256 256 114.613281 256 256zm0 0" fill="#4a7aff"/><path d="m512 256c0-28.722656-4.730469-56.339844-13.453125-82.113281l-83.046875-83.046875-60.199219 51.296875-51.296875-51.296875-25.816406 85.679687-85.679688-85.679687-191.410156 141.492187 158.578125 158.574219-63.175781 30.253906 77.386719 77.386719c25.773437 8.722656 53.390625 13.453125 82.113281 13.453125 141.386719 0 256-114.613281 256-256zm0 0" fill="#2864f0"/><path d="m1.097656 232.332031h509.804688c-2.996094-32.660156-12.121094-63.546875-26.222656-91.496093h-457.359376c-14.101562 27.949218-23.226562 58.835937-26.222656 91.496093zm0 0" fill="#333940"/><path d="m484.679688 140.835938h-229.035157v91.496093h255.253907c-2.992188-32.660156-12.117188-63.546875-26.21875-91.496093zm0 0" fill="#23272b"/><path d="m207.996094 90.839844h96.007812v330.320312h-96.007812zm0 0" fill="#414952"/><path d="m255.644531 90.839844h48.359375v330.320312h-48.359375zm0 0" fill="#333940"/><path d="m292.324219 134.644531c0 20.058594-16.261719 36.320313-36.324219 36.320313s-36.324219-16.261719-36.324219-36.320313c0-20.0625 16.261719-36.324219 36.324219-36.324219s36.324219 16.261719 36.324219 36.324219zm0 0" fill="#f03049"/><path d="m256 98.320312c-.121094 0-.238281.007813-.355469.007813v72.628906c.117188 0 .234375.007813.355469.007813 20.058594 0 36.324219-16.261719 36.324219-36.320313 0-20.0625-16.265625-36.324219-36.324219-36.324219zm0 0" fill="#d1093a"/><path d="m292.324219 215.546875c0 20.0625-16.261719 36.324219-36.324219 36.324219s-36.324219-16.261719-36.324219-36.324219c0-20.058594 16.261719-36.320313 36.324219-36.320313s36.324219 16.261719 36.324219 36.320313zm0 0" fill="#ffd400"/><path d="m256 179.226562c-.121094 0-.238281.007813-.355469.007813v72.625c.117188.003906.234375.011719.355469.011719 20.058594 0 36.324219-16.261719 36.324219-36.324219 0-20.058594-16.265625-36.320313-36.324219-36.320313zm0 0" fill="#fdba12"/><path d="m292.324219 296.453125c0 20.058594-16.261719 36.320313-36.324219 36.320313s-36.324219-16.261719-36.324219-36.320313c0-20.0625 16.261719-36.324219 36.324219-36.324219s36.324219 16.261719 36.324219 36.324219zm0 0" fill="#09ce67"/><path d="m256 260.128906c-.121094 0-.238281.007813-.355469.011719v72.625c.117188 0 .234375.007813.355469.007813 20.058594 0 36.324219-16.261719 36.324219-36.320313 0-20.0625-16.265625-36.324219-36.324219-36.324219zm0 0" fill="#1aad5c"/><path d="m292.324219 377.355469c0 20.0625-16.261719 36.324219-36.324219 36.324219s-36.324219-16.261719-36.324219-36.324219c0-20.058594 16.261719-36.320313 36.324219-36.320313s36.324219 16.261719 36.324219 36.320313zm0 0" fill="#09ce67"/><path d="m256 341.035156c-.121094 0-.238281.007813-.355469.007813v72.628906c.117188 0 .234375.007813.355469.007813 20.058594 0 36.324219-16.261719 36.324219-36.324219 0-20.058594-16.265625-36.320313-36.324219-36.320313zm0 0" fill="#1aad5c"/><path d="m96.5 90.839844h96.007812v330.320312h-96.007812zm0 0" fill="#414952"/><path d="m180.828125 134.644531c0 20.058594-16.261719 36.320313-36.324219 36.320313-20.058594 0-36.324218-16.261719-36.324218-36.320313 0-20.0625 16.265624-36.324219 36.324218-36.324219 20.0625 0 36.324219 16.261719 36.324219 36.324219zm0 0" fill="#f03049"/><path d="m180.828125 215.546875c0 20.0625-16.261719 36.324219-36.324219 36.324219-20.058594 0-36.324218-16.261719-36.324218-36.324219 0-20.058594 16.265624-36.320313 36.324218-36.320313 20.0625 0 36.324219 16.261719 36.324219 36.320313zm0 0" fill="#ffd400"/><path d="m180.828125 296.453125c0 20.058594-16.261719 36.320313-36.324219 36.320313-20.058594 0-36.324218-16.261719-36.324218-36.320313 0-20.0625 16.265624-36.324219 36.324218-36.324219 20.0625 0 36.324219 16.261719 36.324219 36.324219zm0 0" fill="#09ce67"/><path d="m180.828125 377.355469c0 20.0625-16.261719 36.324219-36.324219 36.324219-20.058594 0-36.324218-16.261719-36.324218-36.324219 0-20.058594 16.265624-36.320313 36.324218-36.320313 20.0625 0 36.324219 16.261719 36.324219 36.320313zm0 0" fill="#09ce67"/><path d="m319.492188 90.839844h96.007812v330.320312h-96.007812zm0 0" fill="#333940"/><path d="m403.820312 134.644531c0 20.058594-16.265624 36.320313-36.324218 36.320313-20.0625 0-36.324219-16.261719-36.324219-36.320313 0-20.0625 16.261719-36.324219 36.324219-36.324219 20.058594 0 36.324218 16.261719 36.324218 36.324219zm0 0" fill="#d1093a"/><path d="m403.820312 215.546875c0 20.0625-16.265624 36.324219-36.324218 36.324219-20.0625 0-36.324219-16.261719-36.324219-36.324219 0-20.058594 16.261719-36.320313 36.324219-36.320313 20.058594 0 36.324218 16.261719 36.324218 36.320313zm0 0" fill="#fdba12"/><g fill="#1aad5c"><path d="m403.820312 296.453125c0 20.058594-16.265624 36.320313-36.324218 36.320313-20.0625 0-36.324219-16.261719-36.324219-36.320313 0-20.0625 16.261719-36.324219 36.324219-36.324219 20.058594 0 36.324218 16.261719 36.324218 36.324219zm0 0"/><path d="m403.820312 377.355469c0 20.0625-16.265624 36.324219-36.324218 36.324219-20.0625 0-36.324219-16.261719-36.324219-36.324219 0-20.058594 16.261719-36.320313 36.324219-36.320313 20.058594 0 36.324218 16.261719 36.324218 36.320313zm0 0"/></g></svg>