<?xml version="1.0" encoding="iso-8859-1"?>
<!-- Generator: Adobe Illustrator 19.0.0, SVG Export Plug-In . SVG Version: 6.00 Build 0)  -->
<svg version="1.1" id="Capa_1" xmlns="http://www.w3.org/2000/svg" xmlns:xlink="http://www.w3.org/1999/xlink" x="0px" y="0px"
	 viewBox="0 0 60 60" style="enable-background:new 0 0 60 60;" xml:space="preserve">
<g>
	<g>
		<path d="M18.307,26L5.557,60h48.886l-12.75-34H18.307z M8.443,58l11.25-30h20.614l11.25,30H8.443z"/>
		<path d="M0,0v18h4v32h2V18h47v32h2V18h5V0H0z M58,5c-0.552,0-1,0.448-1,1s0.448,1,1,1v9h-9c0-0.552-0.448-1-1-1s-1,0.448-1,1h-2
			c0-0.552-0.448-1-1-1s-1,0.448-1,1H33c0-0.552-0.448-1-1-1s-1,0.448-1,1h-2c0-0.552-0.448-1-1-1s-1,0.448-1,1H17
			c0-0.552-0.448-1-1-1s-1,0.448-1,1h-2c0-0.552-0.448-1-1-1s-1,0.448-1,1H2V7c0.552,0,1-0.448,1-1S2.552,5,2,5V3
			c0.552,0,1-0.448,1-1h2c0,0.552,0.448,1,1,1s1-0.448,1-1h2c0,0.552,0.448,1,1,1s1-0.448,1-1h6c0,0.552,0.448,1,1,1s1-0.448,1-1h2
			c0,0.552,0.448,1,1,1s1-0.448,1-1h2c0,0.552,0.448,1,1,1s1-0.448,1-1h6c0,0.552,0.448,1,1,1s1-0.448,1-1h2c0,0.552,0.448,1,1,1
			s1-0.448,1-1h2c0,0.552,0.448,1,1,1s1-0.448,1-1h6c0,0.552,0.448,1,1,1s1-0.448,1-1h2c0,0.552,0.448,1,1,1s1-0.448,1-1h2
			c0,0.552,0.448,1,1,1V5z"/>
		<circle cx="8" cy="4" r="1"/>
		<circle cx="4" cy="4" r="1"/>
		<circle cx="24" cy="4" r="1"/>
		<circle cx="20" cy="4" r="1"/>
		<circle cx="40" cy="4" r="1"/>
		<circle cx="36" cy="4" r="1"/>
		<circle cx="56" cy="4" r="1"/>
		<circle cx="52" cy="4" r="1"/>
		<circle cx="6" cy="6" r="1"/>
		<circle cx="10" cy="6" r="1"/>
		<circle cx="8" cy="8" r="1"/>
		<circle cx="4" cy="8" r="1"/>
		<circle cx="18" cy="6" r="1"/>
		<circle cx="22" cy="6" r="1"/>
		<circle cx="26" cy="6" r="1"/>
		<circle cx="24" cy="8" r="1"/>
		<circle cx="20" cy="8" r="1"/>
		<circle cx="34" cy="6" r="1"/>
		<circle cx="38" cy="6" r="1"/>
		<circle cx="42" cy="6" r="1"/>
		<circle cx="40" cy="8" r="1"/>
		<circle cx="36" cy="8" r="1"/>
		<circle cx="50" cy="6" r="1"/>
		<circle cx="54" cy="6" r="1"/>
		<circle cx="56" cy="8" r="1"/>
		<circle cx="52" cy="8" r="1"/>
		<circle cx="10" cy="10" r="1"/>
		<circle cx="14" cy="10" r="1"/>
		<circle cx="12" cy="12" r="1"/>
		<circle cx="18" cy="10" r="1"/>
		<circle cx="26" cy="10" r="1"/>
		<circle cx="30" cy="10" r="1"/>
		<circle cx="28" cy="12" r="1"/>
		<circle cx="32" cy="12" r="1"/>
		<circle cx="16" cy="12" r="1"/>
		<circle cx="34" cy="10" r="1"/>
		<circle cx="42" cy="10" r="1"/>
		<circle cx="46" cy="10" r="1"/>
		<circle cx="44" cy="12" r="1"/>
		<circle cx="50" cy="10" r="1"/>
		<circle cx="48" cy="12" r="1"/>
		<circle cx="10" cy="14" r="1"/>
		<circle cx="14" cy="14" r="1"/>
		<circle cx="18" cy="14" r="1"/>
		<circle cx="26" cy="14" r="1"/>
		<circle cx="30" cy="14" r="1"/>
		<circle cx="34" cy="14" r="1"/>
		<circle cx="42" cy="14" r="1"/>
		<circle cx="46" cy="14" r="1"/>
		<circle cx="50" cy="14" r="1"/>
		<path d="M30,52c-0.552,0-1,0.447-1,1v3c0,0.553,0.448,1,1,1s1-0.447,1-1v-3C31,52.447,30.552,52,30,52z"/>
		<path d="M30,45c-0.552,0-1,0.447-1,1v3c0,0.553,0.448,1,1,1s1-0.447,1-1v-3C31,45.447,30.552,45,30,45z"/>
		<path d="M30,39c-0.552,0-1,0.447-1,1v2c0,0.553,0.448,1,1,1s1-0.447,1-1v-2C31,39.447,30.552,39,30,39z"/>
		<path d="M30,34c-0.552,0-1,0.447-1,1v2c0,0.553,0.448,1,1,1s1-0.447,1-1v-2C31,34.447,30.552,34,30,34z"/>
		<path d="M30,29c-0.552,0-1,0.447-1,1v2c0,0.553,0.448,1,1,1s1-0.447,1-1v-2C31,29.447,30.552,29,30,29z"/>
	</g>
</g>
<g>
</g>
<g>
</g>
<g>
</g>
<g>
</g>
<g>
</g>
<g>
</g>
<g>
</g>
<g>
</g>
<g>
</g>
<g>
</g>
<g>
</g>
<g>
</g>
<g>
</g>
<g>
</g>
<g>
</g>
</svg>
