<svg height="448pt" viewBox="-12 0 448 448.04477" width="448pt" xmlns="http://www.w3.org/2000/svg"><path d="m176.023438 160.03125c.976562-65.71875 37.234374-125.832031 94.910156-157.351562-15.554688-1.980469-31.230469-2.867188-46.910156-2.648438-123.710938 0-224.0000005 100.289062-224.0000005 224 0 123.714844 100.2890625 224 224.0000005 224 85.714843.90625 164.011718-48.484375 200.117187-126.230469-22.722656 9.914063-47.332031 14.769531-72.117187 14.230469-97.15625-.109375-175.890626-78.84375-176-176zm0 0"/><path d="m397.972656 142.542969-32.796875-4.445313c-2.558593-.351562-4.789062-1.917968-5.992187-4.199218l-15.160156-28.730469-15.199219 28.730469c-1.203125 2.28125-3.4375 3.847656-5.992188 4.199218l-32.800781 4.445313 23.335938 21.265625c2.042968 1.859375 2.980468 4.644531 2.480468 7.359375l-5.601562 30.679687 30.230468-14.863281c2.226563-1.09375 4.832032-1.09375 7.058594 0l30.230469 14.863281-5.597656-30.679687c-.5-2.714844.4375-5.5 2.476562-7.359375zm0 0"/></svg>