<svg height="496pt" viewBox="0 0 496 496" width="496pt" xmlns="http://www.w3.org/2000/svg"><path d="m0 496h48v-496h-48zm16-16v-64h16v64zm16-304v64h-16v-64zm-16-16v-64h16v64zm16 96v64h-16v-64zm0 80v64h-16v-64zm0-320v64h-16v-64zm0 0"/><path d="m448 0v496h48v-496zm32 16v64h-16v-64zm-16 304v-64h16v64zm16 16v64h-16v-64zm-16-96v-64h16v64zm0-80v-64h16v64zm0 320v-64h16v64zm0 0"/><path d="m408 288v-17.886719l-.839844-1.6875c-11.230468-22.464843-33.816406-36.425781-58.9375-36.425781h-16.445312c-25.121094 0-47.707032 13.960938-58.9375 36.425781l-.839844 1.6875v17.886719c-13.230469 0-24 10.769531-24 24s10.769531 24 24 24h8v54.113281l-8 16v30.574219c0 9.433594 3.671875 18.296875 10.335938 24.96875 6.664062 6.671875 15.535156 10.34375 24.976562 10.34375h65.375c9.441406 0 18.304688-3.671875 24.976562-10.34375 6.671876-6.671875 10.335938-15.535156 10.335938-24.96875v-30.574219l-8-16v-54.113281h8c13.230469 0 24-10.769531 24-24s-10.769531-24-24-24zm-24 31.976562c-12.945312-4.113281-31.550781-7.976562-48-7.976562-15.550781 0-29.230469 3.433594-40 7.449219v-9.335938l-5.449219-10.890625c8.554688-4.335937 25.304688-11.222656 45.449219-11.222656 20.953125 0 42.257812 7.472656 53.097656 11.929688l-5.097656 10.183593zm-88 73.910157v-57.199219c4.238281-1.839844 9.679688-3.839844 16-5.480469v90.898438c-8.824219-2.570313-16.710938-7.738281-22.625-14.960938zm32-65.503907c2.601562-.230468 5.265625-.382812 8-.382812 5.199219 0 10.640625.457031 16 1.183594v94.816406h-24zm40 3.800782c6.351562 1.503906 11.921875 3.183594 16 4.703125v57l6.625 13.25c-5.914062 7.222656-13.800781 12.390625-22.625 14.960937zm-36.222656-84.183594h16.445312c18.410156 0 35.015625 9.894531 43.777344 25.960938v9.871093c-12.703125-4.976562-34.152344-11.832031-56-11.832031-20.136719 0-37.175781 5.816406-48 10.71875v-8.757812c8.761719-16.066407 25.367188-25.960938 43.777344-25.960938zm-59.777344 72c-4.40625 0-8-3.585938-8-8s3.59375-8 8-8h3.054688l4.945312 9.886719v6.113281zm114.335938 130.34375c-3.640626 3.648438-8.488282 5.65625-13.648438 5.65625h-65.375c-5.160156 0-10.007812-2.007812-13.65625-5.65625s-5.65625-8.503906-5.65625-13.65625v-8.925781c10.511719 7.804687 23.34375 12.238281 36.839844 12.238281h30.3125c13.503906 0 26.328125-4.433594 36.839844-12.238281v8.925781c.007812 5.152344-2 10.007812-5.65625 13.65625zm21.664062-130.34375h-8v-6.113281l4.945312-9.886719h3.054688c4.40625 0 8 3.585938 8 8s-3.59375 8-8 8zm0 0"/><path d="m224 152c13.230469 0 24-10.769531 24-24s-10.769531-24-24-24v-17.886719l-.839844-1.6875c-11.230468-22.464843-33.816406-36.425781-58.9375-36.425781h-16.445312c-25.121094 0-47.707032 13.960938-58.9375 36.425781l-.839844 1.6875v17.886719c-13.230469 0-24 10.769531-24 24s10.769531 24 24 24h8v54.113281l-8 16v30.574219c0 9.433594 3.671875 18.296875 10.335938 24.96875 6.664062 6.671875 15.535156 10.34375 24.976562 10.34375h65.375c9.441406 0 18.304688-3.671875 24.976562-10.34375 6.671876-6.671875 10.335938-15.535156 10.335938-24.96875v-30.574219l-8-16v-54.113281zm8-24c0 4.40625-3.59375 8-8 8h-8v-6.113281l4.945312-9.886719h3.054688c4.40625 0 8 3.59375 8 8zm-32 7.976562c-12.945312-4.105468-31.550781-7.976562-48-7.976562-15.542969 0-29.230469 3.441406-40 7.449219v-9.335938l-5.449219-10.898437c8.554688-4.328125 25.304688-11.214844 45.449219-11.214844 20.953125 0 42.257812 7.472656 53.097656 11.929688l-5.097656 10.183593zm-88 73.910157v-57.191407c4.238281-1.839843 9.679688-3.839843 16-5.480468v90.890625c-8.824219-2.570313-16.71875-7.738281-22.625-14.960938zm32-65.503907c2.601562-.230468 5.265625-.382812 8-.382812 5.199219 0 10.640625.457031 16 1.183594v94.816406h-24zm40 3.800782c6.351562 1.503906 11.921875 3.183594 16 4.703125v57l6.625 13.25c-5.914062 7.222656-13.800781 12.390625-22.625 14.960937zm-36.222656-84.183594h16.445312c18.410156 0 35.015625 9.894531 43.777344 25.960938v9.871093c-12.703125-4.976562-34.152344-11.832031-56-11.832031-20.136719 0-37.175781 5.816406-48 10.71875v-8.757812c8.761719-16.066407 25.367188-25.960938 43.777344-25.960938zm-59.777344 72c-4.40625 0-8-3.59375-8-8s3.59375-8 8-8h3.054688l4.945312 9.886719v6.113281zm114.335938 130.34375c-3.640626 3.648438-8.488282 5.65625-13.648438 5.65625h-65.375c-5.160156 0-10.007812-2.007812-13.65625-5.65625s-5.65625-8.503906-5.65625-13.65625v-8.925781c10.511719 7.804687 23.34375 12.238281 36.839844 12.238281h30.3125c13.503906 0 26.328125-4.433594 36.839844-12.238281v8.925781c.007812 5.152344-2 10.007812-5.65625 13.65625zm0 0"/><path d="m240 0h16v64h-16zm0 0"/><path d="m240 176h16v64h-16zm0 0"/><path d="m240 352h16v64h-16zm0 0"/></svg>