<svg height="512pt" viewBox="1 1 511.99998 511.99998" width="512pt" xmlns="http://www.w3.org/2000/svg"><path d="m512 256c0 141.386719-114.613281 256-256 256-133.277344 0-242.773438-101.847656-254.882812-231.96875-.742188-7.910156-1.117188-15.921875-1.117188-24.03125s.375-16.121094 1.117188-24.03125c12.109374-130.121094 121.605468-231.96875 254.882812-231.96875 141.386719 0 256 114.613281 256 256zm0 0" fill="#f4ca19"/><path d="m268.539062 231.96875v48.0625h-267.421874c-.742188-7.910156-1.117188-15.921875-1.117188-24.03125s.375-16.121094 1.117188-24.03125zm0 0" fill="#d10f46"/><path d="m423.183594 256c0 92.335938-74.851563 167.1875-167.1875 167.1875-92.332032 0-167.1875-74.851562-167.1875-167.1875 0-92.332031 74.855468-167.1875 167.1875-167.1875 92.335937 0 167.1875 74.855469 167.1875 167.1875zm0 0" fill="#ff2751"/><g fill="#fff"><path d="m189.332031 169.953125c0-2.296875 2.078125-4.375 5.359375-4.375h21.984375c13.890625 0 24.828125 6.671875 24.828125 24.609375v.65625c0 17.9375-11.265625 24.832031-25.703125 24.832031h-12.25v25.375c0 2.953125-3.609375 4.484375-7.109375 4.484375-3.613281 0-7.109375-1.53125-7.109375-4.484375zm14.21875 8.09375v26.46875h12.25c7.109375 0 11.484375-4.046875 11.484375-12.578125v-1.3125c0-8.53125-4.375-12.578125-11.484375-12.578125zm0 0"/><path d="m250.253906 169.953125c0-3.0625 3.5-4.375 7.109375-4.375 3.5 0 7.109375 1.3125 7.109375 4.375v71.09375c0 2.953125-3.609375 4.488281-7.109375 4.488281-3.609375 0-7.109375-1.53125-7.109375-4.488281zm0 0"/><path d="m323.097656 165.578125c3.0625 0 4.484375 3.28125 4.484375 6.34375 0 3.390625-1.636719 6.453125-4.484375 6.453125h-15.964844v62.671875c0 2.953125-3.613281 4.488281-7.109374 4.488281-3.609376 0-7.113282-1.53125-7.113282-4.488281v-62.671875h-16.074218c-2.847657 0-4.488282-2.953125-4.488282-6.453125 0-3.0625 1.425782-6.34375 4.488282-6.34375zm0 0"/><path d="m176.972656 324.109375c0-16.40625-35.109375-11.375-35.109375-37.296875 0-16.296875 13.996094-21.875 26.578125-21.875 6.453125 0 20.777344 1.53125 20.777344 8.75 0 2.515625-1.75 7.546875-5.6875 7.546875-3.390625 0-5.90625-4.15625-15.089844-4.15625-7.878906 0-12.359375 3.171875-12.359375 8.421875 0 13.5625 35.109375 8.859375 35.109375 37.1875 0 15.640625-10.9375 23.734375-26.03125 23.734375-14.328125 0-25.265625-7.21875-25.265625-13.5625 0-3.0625 2.84375-7.65625 6.230469-7.65625 4.488281 0 7.441406 8.421875 18.597656 8.421875 6.5625 0 12.25-2.953125 12.25-9.515625zm0 0"/><path d="m246.425781 265.484375c3.0625 0 4.484375 3.28125 4.484375 6.34375 0 3.390625-1.640625 6.453125-4.484375 6.453125h-15.96875v62.671875c0 2.953125-3.609375 4.484375-7.109375 4.484375-3.609375 0-7.109375-1.53125-7.109375-4.484375v-62.671875h-16.078125c-2.84375 0-4.484375-2.953125-4.484375-6.453125 0-3.0625 1.421875-6.34375 4.484375-6.34375zm0 0"/><path d="m256.488281 321.046875v-30.515625c0-18.265625 11.15625-25.046875 25.59375-25.046875s25.707031 6.78125 25.707031 25.046875v30.515625c0 18.265625-11.265624 25.046875-25.707031 25.046875-14.4375 0-25.59375-6.78125-25.59375-25.046875zm37.078125-30.515625c0-8.640625-4.375-12.578125-11.484375-12.578125-7.214843 0-11.371093 3.9375-11.371093 12.578125v30.515625c0 8.640625 4.15625 12.578125 11.371093 12.578125 7.109375 0 11.484375-3.9375 11.484375-12.578125zm0 0"/><path d="m319.929688 269.859375c0-2.296875 2.078124-4.375 5.359374-4.375h21.984376c13.890624 0 24.828124 6.671875 24.828124 24.609375v.65625c0 17.9375-11.265624 24.828125-25.707031 24.828125h-12.25v25.375c0 2.953125-3.609375 4.484375-7.109375 4.484375-3.609375 0-7.109375-1.53125-7.109375-4.484375v-71.09375zm14.21875 8.09375v26.46875h12.25c7.109374 0 11.484374-4.046875 11.484374-12.578125v-1.3125c0-8.53125-4.375-12.578125-11.484374-12.578125zm0 0"/></g></svg>