<svg height="512pt" viewBox="0 0 512 512" width="512pt" xmlns="http://www.w3.org/2000/svg"><path d="m512 256c0 141.386719-114.613281 256-256 256s-256-114.613281-256-256 114.613281-256 256-256 256 114.613281 256 256zm0 0" fill="#ffd400"/><path d="m512 256c0-19.3125-2.152344-38.117188-6.203125-56.203125l-85.796875-85.796875-92.808594 191.191406-201.191406-201.191406v372.5625c38.105469 22.507812 82.539062 35.4375 130 35.4375 141.386719 0 256-114.613281 256-256zm0 0" fill="#fdba12"/><path d="m126 114h294v210h-294zm0 0" fill="#414952"/><path d="m271.644531 114h148.355469v210h-148.355469zm0 0" fill="#333940"/><path d="m168 114h42v42h-42zm0 0" fill="#fff"/><path d="m252 114h42v42h-42zm0 0" fill="#fff"/><path d="m336 114h42v42h-42zm0 0" fill="#dce1eb"/><path d="m126 156h42v42h-42zm0 0" fill="#fff"/><path d="m210 156h42v42h-42zm0 0" fill="#fff"/><path d="m294 156h42v42h-42zm0 0" fill="#dce1eb"/><path d="m378 156h42v42h-42zm0 0" fill="#dce1eb"/><path d="m168 198h42v42h-42zm0 0" fill="#fff"/><path d="m252 198h42v42h-42zm0 0" fill="#fff"/><path d="m336 198h42v42h-42zm0 0" fill="#dce1eb"/><path d="m126 240h42v42h-42zm0 0" fill="#fff"/><path d="m210 240h42v42h-42zm0 0" fill="#fff"/><path d="m294 240h42v42h-42zm0 0" fill="#dce1eb"/><path d="m378 240h42v42h-42zm0 0" fill="#dce1eb"/><path d="m168 282h42v42h-42zm0 0" fill="#fff"/><path d="m252 282h42v42h-42zm0 0" fill="#fff"/><g fill="#dce1eb"><path d="m271.644531 114h22.355469v42h-22.355469zm0 0"/><path d="m271.644531 198h22.355469v42h-22.355469zm0 0"/><path d="m271.644531 282h22.355469v42h-22.355469zm0 0"/><path d="m336 282h42v42h-42zm0 0"/></g><path d="m103 461.265625c7.367188 5.5 15.050781 10.597656 23 15.296875v-372.5625h-23zm0 0" fill="#f03049"/><path d="m126 104h-12.316406v364.808594c4.03125 2.691406 8.132812 5.28125 12.316406 7.753906zm0 0" fill="#d1093a"/></svg>