<svg height="512pt" viewBox="0 0 512 512" width="512pt" xmlns="http://www.w3.org/2000/svg"><path d="m500.539062 211.425781-25.472656-6.1875c-5.601562-24.3125-15.082031-47.203125-28.277344-68.269531l13.453126-22.183594c3.585937-5.90625 2.667968-13.5-2.21875-18.382812l-42.421876-42.425782c-4.886718-4.886718-12.480468-5.804687-18.386718-2.21875l-22.183594 13.453126c-21.070312-13.195313-43.960938-22.675782-68.269531-28.277344l-6.1875-25.472656c-1.632813-6.726563-7.652344-11.460938-14.574219-11.460938h-60c-6.921875 0-12.941406 4.734375-14.578125 11.460938l-6.183594 25.472656c-24.3125 5.601562-47.203125 15.082031-68.269531 28.277344l-22.183594-13.453126c-5.90625-3.585937-13.5-2.667968-18.386718 2.21875l-42.421876 42.421876c-4.886718 4.886718-5.804687 12.480468-2.21875 18.386718l13.453126 22.183594c-13.191407 21.066406-22.675782 43.957031-28.277344 68.269531l-25.472656 6.183594c-6.726563 1.632813-11.460938 7.65625-11.460938 14.578125v60c0 6.921875 4.734375 12.945312 11.460938 14.574219l25.472656 6.1875c5.601562 24.308593 15.082031 47.199219 28.277344 68.265625l-13.453126 22.183594c-3.585937 5.90625-2.667968 13.5 2.21875 18.386718l42.421876 42.425782c4.886718 4.886718 12.480468 5.804687 18.386718 2.21875l22.183594-13.453126c21.066406 13.195313 43.957031 22.675782 68.269531 28.277344l6.183594 25.472656c1.636719 6.726563 7.65625 11.460938 14.578125 11.460938h60c6.921875 0 12.941406-4.734375 14.578125-11.460938l6.183594-25.472656c24.3125-5.601562 47.203125-15.082031 68.269531-28.277344l22.183594 13.453126c5.90625 3.585937 13.5 2.667968 18.386718-2.21875l42.421876-42.425782c4.886718-4.886718 5.804687-12.480468 2.21875-18.386718l-13.453126-22.183594c13.195313-21.066406 22.675782-43.957032 28.277344-68.265625l25.472656-6.1875c6.726563-1.628907 11.460938-7.652344 11.460938-14.574219v-60c0-6.921875-4.734375-12.945312-11.460938-14.574219zm-18.539062 62.78125-23.222656 5.636719c-5.742188 1.394531-10.128906 6.027344-11.207032 11.835938-5.015624 26.972656-15.402343 52.046874-30.875 74.53125-3.34375 4.863281-3.527343 11.234374-.464843 16.28125l12.257812 20.214843-25.777343 25.78125-20.214844-12.261719c-5.046875-3.0625-11.417969-2.878906-16.28125.46875-22.484375 15.472657-47.558594 25.859376-74.53125 30.871094-5.8125 1.078125-10.445313 5.46875-11.835938 11.207032l-5.640625 23.226562h-36.414062l-5.636719-23.222656c-1.394531-5.742188-6.027344-10.128906-11.835938-11.207032-26.972656-5.015624-52.050781-15.402343-74.53125-30.875-4.863281-3.34375-11.238281-3.527343-16.285156-.464843l-20.210937 12.257812-25.78125-25.777343 12.261719-20.214844c3.0625-5.046875 2.878906-11.421875-.46875-16.285156-15.472657-22.480469-25.859376-47.558594-30.871094-74.53125-1.082032-5.808594-5.46875-10.441407-11.207032-11.832032l-23.226562-5.640625v-36.414062l23.222656-5.636719c5.742188-1.394531 10.128906-6.027344 11.207032-11.835938 5.015624-26.972656 15.402343-52.050781 30.875-74.53125 3.34375-4.863281 3.527343-11.238281.464843-16.285156l-12.257812-20.210937 25.777343-25.78125 20.214844 12.261719c5.046875 3.0625 11.421875 2.878906 16.285156-.46875 22.480469-15.472657 47.558594-25.859376 74.53125-30.871094 5.808594-1.078125 10.441407-5.46875 11.835938-11.207032l5.636719-23.226562h36.414062l5.636719 23.222656c1.394531 5.742188 6.027344 10.128906 11.835938 11.207032 26.972656 5.015624 52.046874 15.402343 74.53125 30.875 4.859374 3.34375 11.234374 3.527343 16.28125.46875l20.21875-12.261719 25.777343 25.777343-12.261719 20.214844c-3.0625 5.046875-2.875 11.421875.46875 16.28125 15.472657 22.484375 25.859376 47.558594 30.871094 74.535156 1.082032 5.808594 5.46875 10.441407 11.210938 11.832032l23.222656 5.640625zm0 0"/><path d="m256 91c-90.980469 0-165 74.019531-165 165s74.019531 165 165 165 165-74.019531 165-165-74.019531-165-165-165zm0 300c-74.4375 0-135-60.5625-135-135s60.5625-135 135-135 135 60.5625 135 135-60.5625 135-135 135zm0 0"/><path d="m346.917969 203.507812c-.03125-.054687-.066407-.097656-.097657-.152343-18.203124-31.28125-52.09375-52.355469-90.820312-52.355469s-72.617188 21.074219-90.820312 52.355469c-.03125.054687-.066407.101562-.097657.152343-.019531.035157-.035156.070313-.054687.105469-8.917969 15.425781-14.027344 33.320313-14.027344 52.386719s5.109375 36.960938 14.027344 52.386719c.019531.035156.035156.070312.054687.105469.050781.089843.109375.171874.164063.261718 18.21875 31.21875 52.074218 52.246094 90.753906 52.246094s72.535156-21.027344 90.753906-52.246094c.054688-.089844.113282-.171875.164063-.261718.019531-.035157.035156-.070313.054687-.105469 8.917969-15.425781 14.027344-33.320313 14.027344-52.386719s-5.109375-36.960938-14.027344-52.386719c-.019531-.035156-.035156-.070312-.054687-.105469zm-165.917969 52.492188c0-8.296875 1.375-16.277344 3.875-23.742188l26.890625 15.523438c-.496094 2.667969-.765625 5.410156-.765625 8.21875s.269531 5.550781.765625 8.21875l-26.890625 15.523438c-2.5-7.464844-3.875-15.445313-3.875-23.742188zm75 15c-8.269531 0-15-6.730469-15-15s6.730469-15 15-15 15 6.730469 15 15-6.730469 15-15 15zm44.234375-23.21875 26.890625-15.523438c2.5 7.464844 3.875 15.445313 3.875 23.742188s-1.375 16.277344-3.875 23.742188l-26.890625-15.523438c.492187-2.667969.765625-5.410156.765625-8.21875s-.269531-5.550781-.765625-8.21875zm11.859375-41.488281-26.878906 15.519531c-4.15625-3.554688-8.960938-6.367188-14.214844-8.230469v-31.070312c16.203125 3.300781 30.511719 11.851562 41.09375 23.78125zm-71.09375-23.785157v31.070313c-5.253906 1.863281-10.058594 4.679687-14.214844 8.234375l-26.878906-15.519531c10.582031-11.929688 24.890625-20.480469 41.09375-23.785157zm-41.09375 123.199219 26.878906-15.519531c4.15625 3.554688 8.960938 6.367188 14.214844 8.230469v31.070312c-16.203125-3.300781-30.511719-11.851562-41.09375-23.78125zm71.09375 23.785157v-31.070313c5.253906-1.863281 10.058594-4.679687 14.214844-8.234375l26.878906 15.519531c-10.582031 11.929688-24.890625 20.480469-41.09375 23.785157zm0 0"/></svg>