<svg height="511pt" viewBox="0 0 511 511.99786" width="511pt" xmlns="http://www.w3.org/2000/svg"><path d="m4.890625 4.4375c-3.242187 3.242188-4.8203125 7.789062-4.289063 12.34375l5.613282 48.035156c.394531 3.375 1.921875 6.511719 4.332031 8.90625.171875.171875 165.023437 163.972656 165.167969 164.121094l-12.539063 37.621094c-15.328125-4.496094-32.453125-.726563-44.589843 11.410156l-104.867188 105.914062c-17.542969 17.542969-17.542969 46.089844 0 63.632813l42.421875 42.421875c17.515625 17.511719 46.058594 17.570312 63.683594-.054688l104.871093-105.917968c12.03125-12.035156 15.808594-29.242188 11.332032-44.53125l20.480468-6.824219 20.480469 6.824219c-4.480469 15.28125-.714843 32.480468 11.285157 44.476562l104.972656 106.023438c17.539062 17.542968 46.085937 17.542968 63.632812 0 15.179688-15.183594 27.242188-27.246094 42.417969-42.421875 17.542969-17.542969 17.542969-46.085938.054687-63.578125l-104.972656-106.019532c-12.035156-12.035156-29.246094-15.8125-44.53125-11.335937l-12.53125-37.597656 73.875-73.824219h36.214844c5.484375 0 10.53125-2.992188 13.160156-7.804688l50.074219-91.644531c3.191406-5.84375 2.152344-13.089843-2.554687-17.796875l-42.421876-42.421875c-4.660156-4.660156-11.8125-5.734375-17.636718-2.644531l-92.5625 49.109375c-4.902344 2.601563-7.96875 7.699219-7.96875 13.25v36.210937l-91 91.039063c-.125-.125-182.28125-181.234375-182.398438-181.347656-2.382812-2.367188-5.488281-3.863281-8.824218-4.253907l-48.035157-5.613281c-4.554687-.535156-9.105469 1.046875-12.347656 4.292969zm289.988281 318.25-2.515625-.839844c1.101563-5-.449219-10.226562-4.039062-13.816406l-10.601563-10.601562 35.875-35.84375 10.59375 31.789062zm-106.054687-29.3125 10.605469-31.816406 50.523437 50.523437-31.816406 10.605469zm-153.84375 120.574219 104.871093-105.917969c5.863282-5.863281 15.347657-5.863281 21.210938 0l10.640625 10.640625-126.207031 127.105469-10.566406-10.566406c-5.847657-5.847657-5.847657-15.363282.050781-21.261719zm168.449219-42.234375-104.867188 105.917968c-5.847656 5.847657-15.363281 5.847657-21.210938 0l-10.644531-10.644531 126.207031-127.105469 10.566407 10.570313c5.851562 5.847656 5.851562 15.363281-.050781 21.261719zm211.078124 105.96875-104.972656-106.019532c-5.847656-5.847656-5.847656-15.363281 0-21.210937l10.566406-10.570313 126.207032 127.105469-10.640625 10.644531c-5.847657 5.847657-15.363281 5.847657-21.160157.050782zm-41.394531-169.707032 104.972657 106.023438c5.851562 5.847656 5.851562 15.363281 0 21.210938l-10.566407 10.566406-126.207031-127.105469 10.644531-10.640625c5.84375-5.847656 15.359375-5.851562 21.15625-.054688zm-116.605469-31.761718-21.210937-21.210938c16.640625-16.652344 112.324219-112.375 127.195313-127.253906l20.160156 20.183594 1.121094 1.121094c-9.359376 9.355468-115.234376 115.140624-127.265626 127.160156zm120.984376-203.085938 74.800781-39.683594 26.640625 26.640626-40.425782 73.980468h-27.308593l-33.707031-33.742187zm-320.847657-38.179687c.109375.109375 178.511719 177.492187 178.648438 177.625l-21.207031 21.214843c-.277344-.273437 8.140624 8.027344-178.6875-177.664062l-2.804688-23.984375zm0 0"/></svg>