<svg height="512pt" viewBox="0 0 512 512" width="512pt" xmlns="http://www.w3.org/2000/svg"><path d="m256 0c-140.960938 0-256 115.050781-256 256 0 140.960938 115.050781 256 256 256 140.960938 0 256-115.050781 256-256 0-140.960938-115.050781-256-256-256zm0 482c-124.617188 0-226-101.382812-226-226s101.382812-226 226-226 226 101.382812 226 226-101.382812 226-226 226zm0 0"/><path d="m256 61c-107.523438 0-195 87.476562-195 195 0 107.339844 87.304688 195 195 195 107.292969 0 195-87.296875 195-195 0-107.5-87.472656-195-195-195zm150 209.988281h14.3125c-1.738281 19.183594-6.769531 37.4375-14.527344 54.167969l-105.550781-60.9375c.496094-2.667969.765625-5.410156.765625-8.21875s-.269531-5.550781-.765625-8.21875l105.550781-60.9375c7.757813 16.734375 12.789063 34.976562 14.527344 54.15625h-14.3125c-8.285156 0-15 6.714844-15 15s6.714844 14.988281 15 14.988281zm-150-29.988281c8.269531 0 15 6.730469 15 15s-6.730469 15-15 15-15-6.730469-15-15 6.730469-15 15-15zm-95.507812-119.476562 7.769531 12.492187c4.390625 7.058594 13.644531 9.179687 20.660156 4.820313 7.035156-4.375 9.191406-13.625 4.816406-20.660157l-7.316406-11.765625c16.847656-7.867187 35.234375-12.96875 54.578125-14.722656v14.3125c0 8.285156 6.714844 15 15 15 8.28125 0 15-6.714844 15-15v-14.3125c19.179688 1.738281 37.421875 6.769531 54.15625 14.527344l-7.148438 12.382812c-4.140624 7.171875-1.683593 16.347656 5.492188 20.488282 7.148438 4.128906 16.335938 1.707031 20.488281-5.488282l7.128907-12.347656c15.347656 10.867188 28.765624 24.285156 39.632812 39.632812l-105.539062 60.929688c-4.152344-3.554688-8.957032-6.367188-14.210938-8.230469v-47.582031c0-8.285156-6.71875-15-15-15-8.285156 0-15 6.714844-15 15v47.578125c-17.460938 6.195313-30 22.867187-30 42.421875 0 24.8125 20.1875 45 45 45 11.140625 0 21.34375-4.078125 29.210938-10.8125l105.539062 60.929688c-5.511719 7.785156-11.675781 15.070312-18.417969 21.78125l-46.804687-38.484376c-2.683594-2.207031-6.050782-3.414062-9.527344-3.414062h-120c-3.476562 0-6.84375 1.207031-9.527344 3.414062l-46.804687 38.484376c-6.742188-6.710938-12.90625-13.996094-18.417969-21.78125l12.347656-7.125c7.171875-4.144532 9.628906-13.316407 5.488282-20.492188-4.140626-7.171875-13.316407-9.632812-20.488282-5.488281l-12.382812 7.148437c-7.757813-16.734375-12.789063-34.980468-14.527344-54.160156h14.3125c8.285156 0 15-6.714844 15-15s-6.714844-15-15-15h-14.3125c1.726562-19.035156 6.691406-37.148438 14.347656-53.777344l12.941406 6.980469c7.328126 3.953125 16.410157 1.167969 20.320313-6.082031 3.933594-7.289063 1.214844-16.386719-6.078125-20.320313l-12.199219-6.582031c10.816407-15.359375 24.175781-28.800781 39.472657-39.695312zm2.726562 270.847656 38.15625-31.371094h109.25l38.15625 31.371094c-26.457031 18.058594-58.40625 28.628906-92.78125 28.628906s-66.324219-10.570312-92.78125-28.628906zm0 0"/></svg>