<svg height="511pt" viewBox="0 -94 511.99899 511" width="511pt" xmlns="http://www.w3.org/2000/svg"><path d="m508.769531 192.402344c13.570313-60.945313-16.523437-123.820313-73.445312-151.089844-55.726563-26.699219-117.734375-40.8125-179.320313-40.8125-61.582031 0-123.589844 14.113281-179.320312 40.8125-56.304688 26.976562-87.160156 89.476562-73.445313 151.089844l21.523438 96.667968c5.582031 25.070313 31.121093 40.515626 56.027343 33.5625 114.632813-28.71875 235.800782-28.71875 350.433594.003907 24.859375 6.9375 50.4375-8.460938 56.023438-33.566407zm-29.28125-6.523438-21.523437 96.675782c-1.882813 8.453124-10.46875 13.53125-18.761719 11.160156-.15625-.042969-.3125-.085938-.472656-.125-59.804688-15.003906-121.28125-22.609375-182.726563-22.609375-61.445312 0-122.921875 7.605469-182.726562 22.609375-.15625.039062-.3125.082031-.46875.125-8.277344 2.367187-16.878906-2.695313-18.761719-11.160156l-21.523437-96.671876c-10.679688-47.960937 12.8125-96.285156 57.121093-117.515624 52.863281-25.324219 109.609375-37.988282 166.359375-37.988282s113.496094 12.664063 166.359375 37.988282c44.3125 21.230468 67.800781 69.550781 57.125 117.511718zm0 0"/><path d="m317.007812 61.878906h-122.003906c-8.285156 0-15 6.714844-15 15v60c0 8.285156 6.714844 15.003906 15 15.003906h122.003906c8.28125 0 15-6.71875 15-15.003906v-60c0-8.285156-6.71875-15-15-15zm-15 60h-92.003906v-30h92.003906zm0 0"/><path d="m143.546875 85.019531c-4.046875-2.804687-9.207031-3.445312-13.8125-1.714843-9.644531 3.613281-19.214844 7.691406-28.441406 12.113281-31.652344 15.160156-48.4375 49.671875-40.816407 83.941406l14.957032 67.132813c1.789062 8.027343 9.699218 13.113281 17.746094 11.414062 14.550781-3.074219 29.382812-5.769531 44.082031-8.007812 7.328125-1.117188 12.742187-7.417969 12.742187-14.828126v-137.722656c0-4.921875-2.414062-9.527344-6.457031-12.328125zm-23.542969 137.261719c-6.167968 1.042969-12.335937 2.15625-18.484375 3.335938l-11.757812-52.78125c-4.570313-20.558594 5.5-41.265626 24.492187-50.363282 1.902344-.910156 3.820313-1.804687 5.75-2.683594zm0 0"/><path d="m410.734375 95.417969c-9.230469-4.421875-18.804687-8.5-28.460937-12.121094-4.605469-1.726563-9.769532-1.085937-13.8125 1.71875-4.042969 2.800781-6.453126 7.410156-6.453126 12.328125v137.769531c0 7.410157 5.40625 13.710938 12.730469 14.832031 14.644531 2.238282 29.476563 4.9375 44.082031 8.019532 8.042969 1.703125 15.953126-3.394532 17.738282-11.414063l14.972656-67.183593c7.621094-34.265626-9.15625-68.789063-40.796875-83.949219zm11.515625 77.429687-11.773438 52.832032c-6.148437-1.1875-12.3125-2.300782-18.46875-3.339844v-102.554688c1.9375.878906 3.859376 1.773438 5.765626 2.6875 18.980468 9.097656 29.046874 29.816406 24.476562 50.375zm0 0"/><path d="m332.007812 226.882812c0 8.285157-6.71875 15-15 15-8.285156 0-15-6.714843-15-15 0-8.285156 6.714844-15 15-15 8.28125 0 15 6.714844 15 15zm0 0"/><path d="m271.003906 226.882812c0 8.285157-6.714844 15-15 15-8.28125 0-15-6.714843-15-15 0-8.285156 6.71875-15 15-15 8.285156 0 15 6.714844 15 15zm0 0"/><path d="m210.003906 226.882812c0 8.285157-6.714844 15-15 15s-15-6.714843-15-15c0-8.285156 6.714844-15 15-15s15 6.714844 15 15zm0 0"/></svg>