<svg height="464pt" viewBox="-144 0 464 464" width="464pt" xmlns="http://www.w3.org/2000/svg"><path d="m56 0c-17.671875 0-32 14.328125-32 32v328c-15.109375 11.332031-24 29.113281-24 48 0 30.929688 25.070312 56 56 56s56-25.070312 56-56c0-18.886719-8.890625-36.667969-24-48v-328c0-17.671875-14.328125-32-32-32zm0 440c-17.882812-.25-32.191406-14.917969-32-32.800781-.207031-14.484375 9.835938-27.101563 24-30.152344v-313.046875c0-4.417969 3.582031-8 8-8s8 3.582031 8 8v313.015625c14.175781 3.050781 24.222656 15.6875 24 30.183594.191406 17.882812-14.117188 32.550781-32 32.800781zm0 0"/><path d="m120 336h48c4.417969 0 8-3.582031 8-8s-3.582031-8-8-8h-48c-4.417969 0-8 3.582031-8 8s3.582031 8 8 8zm0 0"/><path d="m120 304h32c4.417969 0 8-3.582031 8-8s-3.582031-8-8-8h-32c-4.417969 0-8 3.582031-8 8s3.582031 8 8 8zm0 0"/><path d="m120 272h48c4.417969 0 8-3.582031 8-8s-3.582031-8-8-8h-48c-4.417969 0-8 3.582031-8 8s3.582031 8 8 8zm0 0"/><path d="m120 240h32c4.417969 0 8-3.582031 8-8s-3.582031-8-8-8h-32c-4.417969 0-8 3.582031-8 8s3.582031 8 8 8zm0 0"/><path d="m120 208h48c4.417969 0 8-3.582031 8-8s-3.582031-8-8-8h-48c-4.417969 0-8 3.582031-8 8s3.582031 8 8 8zm0 0"/><path d="m120 176h32c4.417969 0 8-3.582031 8-8s-3.582031-8-8-8h-32c-4.417969 0-8 3.582031-8 8s3.582031 8 8 8zm0 0"/><path d="m120 144h48c4.417969 0 8-3.582031 8-8s-3.582031-8-8-8h-48c-4.417969 0-8 3.582031-8 8s3.582031 8 8 8zm0 0"/><path d="m120 112h32c4.417969 0 8-3.582031 8-8s-3.582031-8-8-8h-32c-4.417969 0-8 3.582031-8 8s3.582031 8 8 8zm0 0"/><path d="m120 80h48c4.417969 0 8-3.582031 8-8s-3.582031-8-8-8h-48c-4.417969 0-8 3.582031-8 8s3.582031 8 8 8zm0 0"/></svg>