<svg height="448pt" viewBox="0 -48 448.91733 448" width="448pt" xmlns="http://www.w3.org/2000/svg"><path d="m288.917969 265.042969c-1.191407 2.28125-2.402344 4.722656-3.703125 7.25-9.480469 18.902343-20.296875 43.527343-20.296875 56 0 13.253906 10.746093 24 24 24 13.253906 0 24-10.746094 24-24 0-12.472657-10.816407-37.097657-20.296875-56-1.265625-2.527344-2.511719-4.96875-3.703125-7.25zm0 0"/><path d="m210.558594 272.292969 31.527344-48h-49.167969c-2.464844 0-4.789063-1.136719-6.304688-3.074219-1.515625-1.941406-2.050781-4.472656-1.457031-6.863281l13.511719-54.0625h-48l-26.65625 80h60.90625c2.402343 0 4.675781 1.078125 6.195312 2.9375 1.523438 1.863281 2.125 4.308593 1.644531 6.664062l-14.402343 71.460938zm0 0"/><path d="m368.917969 112.292969c-5.324219.007812-10.632813.542969-15.847657 1.601562-4.332031.871094-8.554687-1.933593-9.425781-6.265625-6.070312-29.832031-32.28125-51.285156-62.726562-51.335937-9.230469 0-18.351563 2.019531-26.71875 5.910156-2.027344.9375-4.347657.984375-6.410157.132813-2.058593-.847657-3.671874-2.519532-4.449218-4.609376-16.832032-45.257812-67.011719-68.46875-112.398438-51.992187-45.382812 16.480469-68.984375 66.476563-52.863281 111.992187.855469 2.40625.511719 5.082032-.929687 7.195313-1.445313 2.109375-3.808594 3.40625-6.367188 3.484375-39.691406.644531-71.363281 33.316406-70.7734375 73.007812.5898435 39.695313 33.2148435 71.410157 72.9101565 70.878907h99l3.199219-16h-62.199219c-2.570313 0-4.988281-1.234375-6.492188-3.320313-1.503906-2.085937-1.914062-4.769531-1.101562-7.207031l32-96c1.089843-3.269531 4.148437-5.472656 7.59375-5.472656h64c2.460937 0 4.785156 1.136719 6.300781 3.074219 1.515625 1.941406 2.054688 4.472656 1.457031 6.863281l-13.511719 54.0625h53.753907c2.941406 0 5.644531 1.613281 7.039062 4.199219 1.398438 2.589843 1.261719 5.734374-.351562 8.191406l-33.886719 51.609375h37.597656c6.777344-14.074219 13.167969-25.410157 14.632813-28 1.539062-2.332031 4.148437-3.738281 6.945312-3.738281 2.792969 0 5.402344 1.40625 6.941407 3.738281 1.464843 2.558593 7.855468 13.894531 14.632812 28h58.449219c44.183593 0 80-35.816407 80-80 0-44.183594-35.816407-80-80-80zm0 0"/></svg>